<svg id="visual" viewBox="0 0 1024 100" width="1024" height="100" xmlns="http://www.w3.org/2000/svg" xmlns:xlink="http://www.w3.org/1999/xlink" version="1.1"><path d="M0 34L5.5 35C11 36 22 38 33 38.8C44 39.7 55 39.3 66 43.8C77 48.3 88 57.7 99 61.5C110 65.3 121 63.7 132 58.7C143 53.7 154 45.3 165 40.2C176 35 187 33 198 31.3C209 29.7 220 28.3 231 25.7C242 23 253 19 264 16.5C275 14 286 13 297 17.7C308 22.3 319 32.7 330 33.3C341 34 352 25 363 26C374 27 385 38 396 46.5C407 55 418 61 429 62.2C440 63.3 451 59.7 462 58C473 56.3 484 56.7 495.2 58.8C506.3 61 517.7 65 528.8 62.2C540 59.3 551 49.7 562 49.7C573 49.7 584 59.3 595 58C606 56.7 617 44.3 628 34C639 23.7 650 15.3 661 19C672 22.7 683 38.3 694 39.2C705 40 716 26 727 28C738 30 749 48 760 52.5C771 57 782 48 793 46.8C804 45.7 815 52.3 826 50.8C837 49.3 848 39.7 859 36.3C870 33 881 36 892 38.7C903 41.3 914 43.7 925 42.2C936 40.7 947 35.3 958 35.5C969 35.7 980 41.3 991 41.5C1002 41.7 1013 36.3 1018.5 33.7L1024 31L1024 0L1018.5 0C1013 0 1002 0 991 0C980 0 969 0 958 0C947 0 936 0 925 0C914 0 903 0 892 0C881 0 870 0 859 0C848 0 837 0 826 0C815 0 804 0 793 0C782 0 771 0 760 0C749 0 738 0 727 0C716 0 705 0 694 0C683 0 672 0 661 0C650 0 639 0 628 0C617 0 606 0 595 0C584 0 573 0 562 0C551 0 540 0 528.8 0C517.7 0 506.3 0 495.2 0C484 0 473 0 462 0C451 0 440 0 429 0C418 0 407 0 396 0C385 0 374 0 363 0C352 0 341 0 330 0C319 0 308 0 297 0C286 0 275 0 264 0C253 0 242 0 231 0C220 0 209 0 198 0C187 0 176 0 165 0C154 0 143 0 132 0C121 0 110 0 99 0C88 0 77 0 66 0C55 0 44 0 33 0C22 0 11 0 5.5 0L0 0Z" fill="#3A0000" stroke-linecap="round" stroke-linejoin="miter"></path></svg>